<svg height="464pt" viewBox="0 0 464 464" width="464pt" xmlns="http://www.w3.org/2000/svg"><path d="m0 464 112.320312-178.398438 39.679688 26.398438 14.558594-21.839844 18 24.71875 64.320312-106.320312 23.121094 15.441406 16-16 48 24 .320312-.160156 127.679688 232.160156zm0 0" fill="#4e901e"/><path d="m464 464h-304l82.960938-63.441406 37.039062 7.441406 16 8 34.558594-34.558594zm0 0" fill="#00665a"/><path d="m440 176c13.253906 0 24 10.746094 24 24s-10.746094 24-24 24h-56c-8.835938 0-16-7.164062-16-16s7.164062-16 16-16c.042969-10.648438 7.097656-19.996094 17.328125-22.957031 10.230469-2.960938 21.1875 1.175781 26.910156 10.15625 3.574219-2.078125 7.628907-3.183594 11.761719-3.199219zm0 0" fill="#aafff5"/><path d="m288 144 48.320312 87.839844-.320312.160156-48-24-16 16-23.121094-15.441406zm0 0" fill="#e6e7e8"/><path d="m296 360 34.558594 21.441406-34.558594 34.558594-16-8-37.039062-7.441406zm0 0" fill="#e6e7e8"/><path d="m136 248 30.558594 42.160156-14.558594 21.839844-39.679688-26.398438zm0 0" fill="#e6e7e8"/><path d="m160 96c0 22.089844-17.910156 40-40 40s-40-17.910156-40-40 17.910156-40 40-40 40 17.910156 40 40zm0 0" fill="#ffeb99"/><g fill="#ffda44"><path d="m112 0h16v32h-16zm0 0"/><path d="m46.460938 33.773438 11.3125-11.3125 22.628906 22.628906-11.316406 11.3125zm0 0"/><path d="m24 88h32v16h-32zm0 0"/><path d="m46.457031 158.222656 22.628907-22.628906 11.3125 11.3125-22.628907 22.628906zm0 0"/><path d="m112 160h16v32h-16zm0 0"/><path d="m159.59375 146.914062 11.316406-11.3125 22.625 22.628907-11.316406 11.3125zm0 0"/><path d="m184 88h32v16h-32zm0 0"/><path d="m159.601562 45.085938 22.628907-22.625 11.3125 11.3125-22.628907 22.628906zm0 0"/></g></svg>